<svg width="3012" height="323" viewBox="0 0 3012 323" fill="none" xmlns="http://www.w3.org/2000/svg">
<rect width="3012" height="26" fill="white"/>
<mask id="path-2-inside-1_7_29" fill="white">
<path d="M3012 323H2944.49H2852.47H2760.46H2668.44H2576.43H2484.41H2392.4H2300.38H2208.37H2116.35H2024.34H1932.32H1840.31H1748.29H1656.28H1564.26H1472.24H1380.23H1288.21H1196.2H1104.18H1012.17H920.153H828.138H736.122H644.107H552.092H460.076H368.061H276.046H184.031H92.0153H0V144.191V78.1929V13H67.5111H159.526H251.542H343.557H435.572H527.588H619.603H711.618H803.633H895.649H987.664H1079.68H1171.69H1263.71H1355.73H1447.74H1539.76H1631.77H1723.79H1815.8H1907.82H1999.83H2091.85H2183.86H2275.88H2367.89H2459.91H2551.92H2643.94H2735.95H2827.97H2919.98H3012V191.809V257.807V323Z"/>
</mask>
<path d="M2944.49 323L2938.4 325.287L2943.56 339.007L2950.27 325.974L2944.49 323ZM2852.47 323L2846.39 325.287L2851.55 339.007L2858.25 325.974L2852.47 323ZM2760.46 323L2754.37 325.287L2759.53 339.007L2766.24 325.974L2760.46 323ZM2668.44 323L2662.36 325.287L2667.52 339.007L2674.22 325.974L2668.44 323ZM2576.43 323L2570.34 325.287L2575.5 339.007L2582.21 325.974L2576.43 323ZM2484.41 323L2478.33 325.287L2483.49 339.007L2490.19 325.974L2484.41 323ZM2392.4 323L2386.31 325.287L2391.47 339.007L2398.18 325.974L2392.4 323ZM2300.38 323L2294.3 325.287L2299.45 339.007L2306.16 325.974L2300.38 323ZM2208.37 323L2202.28 325.287L2207.44 339.007L2214.15 325.974L2208.37 323ZM2116.35 323L2110.27 325.287L2115.42 339.007L2122.13 325.974L2116.35 323ZM2024.34 323L2018.25 325.287L2023.41 339.007L2030.12 325.974L2024.34 323ZM1932.32 323L1926.24 325.287L1931.39 339.007L1938.1 325.974L1932.32 323ZM1840.31 323L1834.22 325.287L1839.38 339.007L1846.09 325.974L1840.31 323ZM1748.29 323L1742.21 325.287L1747.36 339.007L1754.07 325.974L1748.29 323ZM1656.28 323L1650.19 325.287L1655.35 339.007L1662.05 325.974L1656.28 323ZM1564.26 323L1558.18 325.287L1563.33 339.007L1570.04 325.974L1564.26 323ZM1472.24 323L1466.16 325.287L1471.32 339.007L1478.02 325.974L1472.24 323ZM1380.23 323L1374.14 325.287L1379.3 339.007L1386.01 325.974L1380.23 323ZM1288.21 323L1282.13 325.287L1287.29 339.007L1293.99 325.974L1288.21 323ZM1196.2 323L1190.11 325.287L1195.27 339.007L1201.98 325.974L1196.2 323ZM1104.18 323L1098.1 325.287L1103.26 339.007L1109.96 325.974L1104.18 323ZM1012.17 323L1006.08 325.287L1011.24 339.007L1017.95 325.974L1012.17 323ZM920.153 323L914.068 325.287L919.225 339.007L925.932 325.974L920.153 323ZM828.138 323L822.053 325.287L827.21 339.007L833.917 325.974L828.138 323ZM736.122 323L730.038 325.287L735.195 339.007L741.902 325.974L736.122 323ZM644.107 323L638.023 325.287L643.18 339.007L649.887 325.974L644.107 323ZM552.092 323L546.007 325.287L551.164 339.007L557.871 325.974L552.092 323ZM460.076 323L453.992 325.287L459.149 339.007L465.856 325.974L460.076 323ZM368.061 323L361.977 325.287L367.134 339.007L373.841 325.974L368.061 323ZM276.046 323L269.961 325.287L275.119 339.007L281.826 325.974L276.046 323ZM184.031 323L177.946 325.287L183.103 339.007L189.81 325.974L184.031 323ZM92.0153 323L85.9309 325.287L91.088 339.007L97.7949 325.974L92.0153 323ZM67.5111 13L73.5955 10.7131L68.4384 -3.00743L61.7315 10.0258L67.5111 13ZM159.526 13L165.611 10.7131L160.454 -3.00743L153.747 10.0258L159.526 13ZM251.542 13L257.626 10.7131L252.469 -3.00743L245.762 10.0258L251.542 13ZM343.557 13L349.641 10.7131L344.484 -3.00743L337.777 10.0258L343.557 13ZM435.572 13L441.657 10.7131L436.5 -3.00744L429.793 10.0258L435.572 13ZM527.588 13L533.672 10.7131L528.515 -3.00744L521.808 10.0258L527.588 13ZM619.603 13L625.687 10.7131L620.53 -3.00743L613.823 10.0258L619.603 13ZM711.618 13L717.703 10.7131L712.545 -3.00743L705.839 10.0258L711.618 13ZM803.633 13L809.718 10.7131L804.561 -3.00744L797.854 10.0258L803.633 13ZM895.649 13L901.733 10.7131L896.576 -3.00743L889.869 10.0258L895.649 13ZM987.664 13L993.748 10.7131L988.591 -3.00743L981.884 10.0258L987.664 13ZM1079.68 13L1085.76 10.7131L1080.61 -3.00743L1073.9 10.0258L1079.68 13ZM1171.69 13L1177.78 10.7131L1172.62 -3.00744L1165.91 10.0258L1171.69 13ZM1263.71 13L1269.79 10.7131L1264.64 -3.00743L1257.93 10.0258L1263.71 13ZM1355.73 13L1361.81 10.7131L1356.65 -3.00743L1349.95 10.0258L1355.73 13ZM1447.74 13L1453.82 10.7131L1448.67 -3.00743L1441.96 10.0258L1447.74 13ZM1539.76 13L1545.84 10.7131L1540.68 -3.00743L1533.98 10.0258L1539.76 13ZM1631.77 13L1637.86 10.7131L1632.7 -3.00743L1625.99 10.0258L1631.77 13ZM1723.79 13L1729.87 10.7131L1724.71 -3.00743L1718.01 10.0258L1723.79 13ZM1815.8 13L1821.89 10.7131L1816.73 -3.00743L1810.02 10.0258L1815.8 13ZM1907.82 13L1913.9 10.7131L1908.74 -3.00745L1902.04 10.0258L1907.82 13ZM1999.83 13L2005.92 10.7131L2000.76 -3.00744L1994.05 10.0258L1999.83 13ZM2091.85 13L2097.93 10.7131L2092.77 -3.00744L2086.07 10.0258L2091.85 13ZM2183.86 13L2189.95 10.7131L2184.79 -3.00743L2178.08 10.0258L2183.86 13ZM2275.88 13L2281.96 10.7131L2276.81 -3.00743L2270.1 10.0258L2275.88 13ZM2367.89 13L2373.98 10.7131L2368.82 -3.00743L2362.11 10.0258L2367.89 13ZM2459.91 13L2465.99 10.7131L2460.84 -3.00743L2454.13 10.0258L2459.91 13ZM2551.92 13L2558.01 10.7131L2552.85 -3.00743L2546.14 10.0258L2551.92 13ZM2643.94 13L2650.02 10.7131L2644.87 -3.00743L2638.16 10.0258L2643.94 13ZM2735.95 13L2742.04 10.7131L2736.88 -3.00743L2730.17 10.0258L2735.95 13ZM2827.97 13L2834.05 10.7131L2828.9 -3.00743L2822.19 10.0258L2827.97 13ZM2919.98 13L2926.07 10.7131L2920.91 -3.00743L2914.21 10.0258L2919.98 13ZM5.77963 325.974L58.9551 222.641L47.3959 216.692L-5.77963 320.026L5.77963 325.974ZM58.9551 222.641L112.131 119.308L100.571 113.359L47.3959 216.692L58.9551 222.641ZM112.131 119.308L165.306 15.9742L153.747 10.0258L100.571 113.359L112.131 119.308ZM97.7949 325.974L150.97 222.641L139.411 216.692L86.2356 320.026L97.7949 325.974ZM150.97 222.641L204.146 119.308L192.587 113.359L139.411 216.692L150.97 222.641ZM204.146 119.308L257.321 15.9742L245.762 10.0258L192.587 113.359L204.146 119.308ZM189.81 325.974L242.986 222.641L231.426 216.692L178.251 320.026L189.81 325.974ZM242.986 222.641L296.161 119.308L284.602 113.359L231.426 216.692L242.986 222.641ZM296.161 119.308L349.337 15.9742L337.777 10.0258L284.602 113.359L296.161 119.308ZM281.826 325.974L335.001 222.641L323.442 216.692L270.266 320.026L281.826 325.974ZM335.001 222.641L388.176 119.308L376.617 113.359L323.442 216.692L335.001 222.641ZM388.176 119.308L441.352 15.9742L429.793 10.0258L376.617 113.359L388.176 119.308ZM373.841 325.974L427.016 222.641L415.457 216.692L362.282 320.026L373.841 325.974ZM427.016 222.641L480.192 119.308L468.632 113.359L415.457 216.692L427.016 222.641ZM480.192 119.308L533.367 15.9742L521.808 10.0258L468.632 113.359L480.192 119.308ZM465.856 325.974L519.032 222.641L507.472 216.692L454.297 320.026L465.856 325.974ZM519.032 222.641L572.207 119.308L560.648 113.359L507.472 216.692L519.032 222.641ZM572.207 119.308L625.383 15.9742L613.823 10.0258L560.648 113.359L572.207 119.308ZM557.871 325.974L611.047 222.641L599.488 216.692L546.312 320.026L557.871 325.974ZM611.047 222.641L664.222 119.308L652.663 113.359L599.488 216.692L611.047 222.641ZM664.222 119.308L717.398 15.9742L705.839 10.0258L652.663 113.359L664.222 119.308ZM649.887 325.974L703.062 222.641L691.503 216.692L638.327 320.026L649.887 325.974ZM703.062 222.641L756.238 119.308L744.678 113.359L691.503 216.692L703.062 222.641ZM756.238 119.308L809.413 15.9742L797.854 10.0258L744.678 113.359L756.238 119.308ZM741.902 325.974L795.077 222.641L783.518 216.692L730.343 320.026L741.902 325.974ZM795.077 222.641L848.253 119.308L836.694 113.359L783.518 216.692L795.077 222.641ZM848.253 119.308L901.428 15.9742L889.869 10.0258L836.694 113.359L848.253 119.308ZM833.917 325.974L887.093 222.641L875.533 216.693L822.358 320.026L833.917 325.974ZM887.093 222.641L940.268 119.307L928.709 113.359L875.533 216.693L887.093 222.641ZM940.268 119.307L993.444 15.9742L981.884 10.0258L928.709 113.359L940.268 119.307ZM925.932 325.974L979.108 222.641L967.549 216.692L914.373 320.026L925.932 325.974ZM979.108 222.641L1032.28 119.308L1020.72 113.359L967.549 216.692L979.108 222.641ZM1032.28 119.308L1085.46 15.9742L1073.9 10.0258L1020.72 113.359L1032.28 119.308ZM1017.95 325.974L1071.12 222.641L1059.56 216.693L1006.39 320.026L1017.95 325.974ZM1071.12 222.641L1124.3 119.308L1112.74 113.359L1059.56 216.693L1071.12 222.641ZM1124.3 119.308L1177.47 15.9742L1165.91 10.0258L1112.74 113.359L1124.3 119.308ZM1109.96 325.974L1163.14 222.641L1151.58 216.692L1098.4 320.026L1109.96 325.974ZM1163.14 222.641L1216.31 119.308L1204.75 113.359L1151.58 216.692L1163.14 222.641ZM1216.31 119.308L1269.49 15.9742L1257.93 10.0258L1204.75 113.359L1216.31 119.308ZM1201.98 325.974L1255.15 222.641L1243.59 216.692L1190.42 320.026L1201.98 325.974ZM1255.15 222.641L1308.33 119.308L1296.77 113.359L1243.59 216.692L1255.15 222.641ZM1308.33 119.308L1361.5 15.9742L1349.95 10.0258L1296.77 113.359L1308.33 119.308ZM1293.99 325.974L1347.17 222.641L1335.61 216.692L1282.43 320.026L1293.99 325.974ZM1347.17 222.641L1400.34 119.308L1388.79 113.359L1335.61 216.692L1347.17 222.641ZM1400.34 119.308L1453.52 15.9742L1441.96 10.0258L1388.79 113.359L1400.34 119.308ZM1386.01 325.974L1439.18 222.641L1427.62 216.692L1374.45 320.026L1386.01 325.974ZM1439.18 222.641L1492.36 119.308L1480.8 113.359L1427.62 216.692L1439.18 222.641ZM1492.36 119.308L1545.54 15.9742L1533.98 10.0258L1480.8 113.359L1492.36 119.308ZM1478.02 325.974L1531.2 222.641L1519.64 216.692L1466.46 320.026L1478.02 325.974ZM1531.2 222.641L1584.38 119.308L1572.82 113.359L1519.64 216.692L1531.2 222.641ZM1584.38 119.308L1637.55 15.9742L1625.99 10.0258L1572.82 113.359L1584.38 119.308ZM1570.04 325.974L1623.21 222.641L1611.66 216.692L1558.48 320.026L1570.04 325.974ZM1623.21 222.641L1676.39 119.308L1664.83 113.359L1611.66 216.692L1623.21 222.641ZM1676.39 119.308L1729.57 15.9742L1718.01 10.0258L1664.83 113.359L1676.39 119.308ZM1662.05 325.974L1715.23 222.641L1703.67 216.692L1650.5 320.026L1662.05 325.974ZM1715.23 222.641L1768.41 119.308L1756.85 113.359L1703.67 216.692L1715.23 222.641ZM1768.41 119.308L1821.58 15.9742L1810.02 10.0258L1756.85 113.359L1768.41 119.308ZM1754.07 325.974L1807.25 222.641L1795.69 216.692L1742.51 320.026L1754.07 325.974ZM1807.25 222.641L1860.42 119.308L1848.86 113.359L1795.69 216.692L1807.25 222.641ZM1860.42 119.308L1913.6 15.9742L1902.04 10.0258L1848.86 113.359L1860.42 119.308ZM1846.09 325.974L1899.26 222.641L1887.7 216.692L1834.53 320.026L1846.09 325.974ZM1899.26 222.641L1952.44 119.307L1940.88 113.359L1887.7 216.692L1899.26 222.641ZM1952.44 119.307L2005.61 15.9742L1994.05 10.0258L1940.88 113.359L1952.44 119.307ZM1938.1 325.974L1991.28 222.641L1979.72 216.693L1926.54 320.026L1938.1 325.974ZM1991.28 222.641L2044.45 119.308L2032.89 113.359L1979.72 216.693L1991.28 222.641ZM2044.45 119.308L2097.63 15.9742L2086.07 10.0258L2032.89 113.359L2044.45 119.308ZM2030.12 325.974L2083.29 222.641L2071.73 216.692L2018.56 320.026L2030.12 325.974ZM2083.29 222.641L2136.47 119.308L2124.91 113.359L2071.73 216.692L2083.29 222.641ZM2136.47 119.308L2189.64 15.9742L2178.08 10.0258L2124.91 113.359L2136.47 119.308ZM2122.13 325.974L2175.31 222.641L2163.75 216.692L2110.57 320.026L2122.13 325.974ZM2175.31 222.641L2228.48 119.308L2216.92 113.359L2163.75 216.692L2175.31 222.641ZM2228.48 119.308L2281.66 15.9742L2270.1 10.0258L2216.92 113.359L2228.48 119.308ZM2214.15 325.974L2267.32 222.641L2255.76 216.692L2202.59 320.026L2214.15 325.974ZM2267.32 222.641L2320.5 119.308L2308.94 113.359L2255.76 216.692L2267.32 222.641ZM2320.5 119.308L2373.67 15.9742L2362.11 10.0258L2308.94 113.359L2320.5 119.308ZM2306.16 325.974L2359.34 222.641L2347.78 216.692L2294.6 320.026L2306.16 325.974ZM2359.34 222.641L2412.51 119.308L2400.95 113.359L2347.78 216.692L2359.34 222.641ZM2412.51 119.308L2465.69 15.9742L2454.13 10.0258L2400.95 113.359L2412.51 119.308ZM2398.18 325.974L2451.35 222.641L2439.79 216.692L2386.62 320.026L2398.18 325.974ZM2451.35 222.641L2504.53 119.308L2492.97 113.359L2439.79 216.692L2451.35 222.641ZM2504.53 119.308L2557.7 15.9742L2546.14 10.0258L2492.97 113.359L2504.53 119.308ZM2490.19 325.974L2543.37 222.641L2531.81 216.692L2478.63 320.026L2490.19 325.974ZM2543.37 222.641L2596.54 119.308L2584.98 113.359L2531.81 216.692L2543.37 222.641ZM2596.54 119.308L2649.72 15.9742L2638.16 10.0258L2584.98 113.359L2596.54 119.308ZM2582.21 325.974L2635.38 222.641L2623.82 216.692L2570.65 320.026L2582.21 325.974ZM2635.38 222.641L2688.56 119.308L2677 113.359L2623.82 216.692L2635.38 222.641ZM2688.56 119.308L2741.73 15.9742L2730.17 10.0258L2677 113.359L2688.56 119.308ZM2674.22 325.974L2727.4 222.641L2715.84 216.692L2662.66 320.026L2674.22 325.974ZM2727.4 222.641L2780.57 119.308L2769.01 113.359L2715.84 216.692L2727.4 222.641ZM2780.57 119.308L2833.75 15.9742L2822.19 10.0258L2769.01 113.359L2780.57 119.308ZM2766.24 325.974L2819.41 222.641L2807.85 216.692L2754.68 320.026L2766.24 325.974ZM2819.41 222.641L2872.59 119.308L2861.03 113.359L2807.85 216.692L2819.41 222.641ZM2872.59 119.308L2925.76 15.9742L2914.21 10.0258L2861.03 113.359L2872.59 119.308ZM2858.25 325.974L2911.43 222.641L2899.87 216.692L2846.69 320.026L2858.25 325.974ZM2911.43 222.641L2964.6 119.308L2953.04 113.359L2899.87 216.692L2911.43 222.641ZM2964.6 119.308L3017.78 15.9742L3006.22 10.0258L2953.04 113.359L2964.6 119.308ZM2950.27 325.974L3003.44 222.641L2991.88 216.692L2938.71 320.026L2950.27 325.974ZM3003.44 222.641L3017.78 194.783L3006.22 188.835L2991.88 216.692L3003.44 222.641ZM5.77963 147.165L20.1153 119.307L8.55609 113.359L-5.77963 141.217L5.77963 147.165ZM20.1153 119.307L73.2908 15.9742L61.7315 10.0258L8.55609 113.359L20.1153 119.307ZM2950.57 320.713L2911.73 217.38L2899.56 221.954L2938.4 325.287L2950.57 320.713ZM2911.73 217.38L2872.89 114.046L2860.72 118.62L2899.56 221.954L2911.73 217.38ZM2872.89 114.046L2834.05 10.7131L2821.89 15.2869L2860.72 118.62L2872.89 114.046ZM2858.56 320.713L2819.72 217.38L2807.55 221.954L2846.39 325.287L2858.56 320.713ZM2819.72 217.38L2780.88 114.046L2768.71 118.62L2807.55 221.954L2819.72 217.38ZM2780.88 114.046L2742.04 10.7131L2729.87 15.2869L2768.71 118.62L2780.88 114.046ZM2766.54 320.713L2727.7 217.38L2715.53 221.954L2754.37 325.287L2766.54 320.713ZM2727.7 217.38L2688.86 114.046L2676.69 118.62L2715.53 221.954L2727.7 217.38ZM2688.86 114.046L2650.02 10.7131L2637.85 15.2869L2676.69 118.62L2688.86 114.046ZM2674.53 320.713L2635.69 217.38L2623.52 221.954L2662.36 325.287L2674.53 320.713ZM2635.69 217.38L2596.85 114.046L2584.68 118.62L2623.52 221.954L2635.69 217.38ZM2596.85 114.046L2558.01 10.7131L2545.84 15.2869L2584.68 118.62L2596.85 114.046ZM2582.51 320.713L2543.67 217.38L2531.5 221.954L2570.34 325.287L2582.51 320.713ZM2543.67 217.38L2504.83 114.046L2492.66 118.62L2531.5 221.954L2543.67 217.38ZM2504.83 114.046L2465.99 10.7131L2453.82 15.2869L2492.66 118.62L2504.83 114.046ZM2490.5 320.713L2451.66 217.38L2439.49 221.954L2478.33 325.287L2490.5 320.713ZM2451.66 217.38L2412.82 114.046L2400.65 118.62L2439.49 221.954L2451.66 217.38ZM2412.82 114.046L2373.98 10.7131L2361.81 15.2869L2400.65 118.62L2412.82 114.046ZM2398.48 320.713L2359.64 217.38L2347.47 221.954L2386.31 325.287L2398.48 320.713ZM2359.64 217.38L2320.8 114.046L2308.63 118.62L2347.47 221.954L2359.64 217.38ZM2320.8 114.046L2281.96 10.7131L2269.79 15.2869L2308.63 118.62L2320.8 114.046ZM2306.47 320.713L2267.63 217.38L2255.46 221.954L2294.3 325.287L2306.47 320.713ZM2267.63 217.38L2228.79 114.046L2216.62 118.62L2255.46 221.954L2267.63 217.38ZM2228.79 114.046L2189.95 10.7131L2177.78 15.2869L2216.62 118.62L2228.79 114.046ZM2214.45 320.713L2175.61 217.38L2163.44 221.954L2202.28 325.287L2214.45 320.713ZM2175.61 217.38L2136.77 114.046L2124.6 118.62L2163.44 221.954L2175.61 217.38ZM2136.77 114.046L2097.93 10.7131L2085.76 15.2869L2124.6 118.62L2136.77 114.046ZM2122.44 320.713L2083.6 217.38L2071.43 221.954L2110.27 325.287L2122.44 320.713ZM2083.6 217.38L2044.76 114.046L2032.59 118.62L2071.43 221.954L2083.6 217.38ZM2044.76 114.046L2005.92 10.7131L1993.75 15.2869L2032.59 118.62L2044.76 114.046ZM2030.42 320.713L1991.58 217.38L1979.41 221.954L2018.25 325.287L2030.42 320.713ZM1991.58 217.38L1952.74 114.046L1940.57 118.62L1979.41 221.954L1991.58 217.38ZM1952.74 114.046L1913.9 10.7131L1901.73 15.2869L1940.57 118.62L1952.74 114.046ZM1938.41 320.713L1899.57 217.38L1887.4 221.954L1926.24 325.287L1938.41 320.713ZM1899.57 217.38L1860.73 114.046L1848.56 118.62L1887.4 221.954L1899.57 217.38ZM1860.73 114.046L1821.89 10.7131L1809.72 15.2869L1848.56 118.62L1860.73 114.046ZM1846.39 320.713L1807.55 217.38L1795.38 221.954L1834.22 325.287L1846.39 320.713ZM1807.55 217.38L1768.71 114.046L1756.54 118.62L1795.38 221.954L1807.55 217.38ZM1768.71 114.046L1729.87 10.7131L1717.7 15.2869L1756.54 118.62L1768.71 114.046ZM1754.37 320.713L1715.53 217.38L1703.37 221.954L1742.21 325.287L1754.37 320.713ZM1715.53 217.38L1676.7 114.046L1664.53 118.62L1703.37 221.954L1715.53 217.38ZM1676.7 114.046L1637.86 10.7131L1625.69 15.2869L1664.53 118.62L1676.7 114.046ZM1662.36 320.713L1623.52 217.38L1611.35 221.954L1650.19 325.287L1662.36 320.713ZM1623.52 217.38L1584.68 114.046L1572.51 118.62L1611.35 221.954L1623.52 217.38ZM1584.68 114.046L1545.84 10.7131L1533.67 15.2869L1572.51 118.62L1584.68 114.046ZM1570.34 320.713L1531.5 217.38L1519.34 221.954L1558.18 325.287L1570.34 320.713ZM1531.5 217.38L1492.66 114.046L1480.5 118.62L1519.34 221.954L1531.5 217.38ZM1492.66 114.046L1453.82 10.7131L1441.66 15.2869L1480.5 118.62L1492.66 114.046ZM1478.33 320.713L1439.49 217.38L1427.32 221.954L1466.16 325.287L1478.33 320.713ZM1439.49 217.38L1400.65 114.046L1388.48 118.62L1427.32 221.954L1439.49 217.38ZM1400.65 114.046L1361.81 10.7131L1349.64 15.2869L1388.48 118.62L1400.65 114.046ZM1386.31 320.713L1347.47 217.38L1335.3 221.954L1374.14 325.287L1386.31 320.713ZM1347.47 217.38L1308.63 114.046L1296.47 118.62L1335.3 221.954L1347.47 217.38ZM1308.63 114.046L1269.79 10.7131L1257.63 15.2869L1296.47 118.62L1308.63 114.046ZM1294.3 320.713L1255.46 217.38L1243.29 221.954L1282.13 325.287L1294.3 320.713ZM1255.46 217.38L1216.62 114.046L1204.45 118.62L1243.29 221.954L1255.46 217.38ZM1216.62 114.046L1177.78 10.7131L1165.61 15.2869L1204.45 118.62L1216.62 114.046ZM1202.28 320.713L1163.44 217.38L1151.27 221.954L1190.11 325.287L1202.28 320.713ZM1163.44 217.38L1124.6 114.046L1112.43 118.62L1151.27 221.954L1163.44 217.38ZM1124.6 114.046L1085.76 10.7131L1073.59 15.2869L1112.43 118.62L1124.6 114.046ZM1110.27 320.713L1071.43 217.38L1059.26 221.954L1098.1 325.287L1110.27 320.713ZM1071.43 217.38L1032.59 114.046L1020.42 118.62L1059.26 221.954L1071.43 217.38ZM1032.59 114.046L993.748 10.7131L981.58 15.2869L1020.42 118.62L1032.59 114.046ZM1018.25 320.713L979.413 217.38L967.244 221.953L1006.08 325.287L1018.25 320.713ZM979.413 217.38L940.573 114.046L928.404 118.62L967.244 221.953L979.413 217.38ZM940.573 114.046L901.733 10.7131L889.564 15.2869L928.404 118.62L940.573 114.046ZM926.237 320.713L887.397 217.38L875.229 221.954L914.068 325.287L926.237 320.713ZM887.397 217.38L848.558 114.046L836.389 118.62L875.229 221.954L887.397 217.38ZM848.558 114.046L809.718 10.7131L797.549 15.2869L836.389 118.62L848.558 114.046ZM834.222 320.713L795.382 217.38L783.213 221.954L822.053 325.287L834.222 320.713ZM795.382 217.38L756.542 114.046L744.374 118.62L783.213 221.954L795.382 217.38ZM756.542 114.046L717.703 10.7131L705.534 15.2869L744.374 118.62L756.542 114.046ZM742.207 320.713L703.367 217.38L691.198 221.954L730.038 325.287L742.207 320.713ZM703.367 217.38L664.527 114.046L652.358 118.62L691.198 221.954L703.367 217.38ZM664.527 114.046L625.687 10.7131L613.518 15.2869L652.358 118.62L664.527 114.046ZM650.191 320.713L611.352 217.38L599.183 221.954L638.023 325.287L650.191 320.713ZM611.352 217.38L572.512 114.046L560.343 118.62L599.183 221.954L611.352 217.38ZM572.512 114.046L533.672 10.7131L521.503 15.2869L560.343 118.62L572.512 114.046ZM558.176 320.713L519.336 217.38L507.168 221.954L546.007 325.287L558.176 320.713ZM519.336 217.38L480.497 114.046L468.328 118.62L507.168 221.954L519.336 217.38ZM480.497 114.046L441.657 10.7131L429.488 15.2869L468.328 118.62L480.497 114.046ZM466.161 320.713L427.321 217.38L415.152 221.954L453.992 325.287L466.161 320.713ZM427.321 217.38L388.481 114.046L376.312 118.62L415.152 221.954L427.321 217.38ZM388.481 114.046L349.641 10.7131L337.473 15.2869L376.312 118.62L388.481 114.046ZM374.146 320.713L335.306 217.38L323.137 221.954L361.977 325.287L374.146 320.713ZM335.306 217.38L296.466 114.046L284.297 118.62L323.137 221.954L335.306 217.38ZM296.466 114.046L257.626 10.7131L245.457 15.2869L284.297 118.62L296.466 114.046ZM282.13 320.713L243.29 217.38L231.122 221.954L269.961 325.287L282.13 320.713ZM243.29 217.38L204.451 114.046L192.282 118.62L231.122 221.954L243.29 217.38ZM204.451 114.046L165.611 10.7131L153.442 15.2869L192.282 118.62L204.451 114.046ZM190.115 320.713L151.275 217.38L139.106 221.954L177.946 325.287L190.115 320.713ZM151.275 217.38L112.435 114.046L100.267 118.62L139.106 221.954L151.275 217.38ZM112.435 114.046L73.5955 10.7131L61.4267 15.2869L100.267 118.62L112.435 114.046ZM98.0997 320.713L59.2599 217.38L47.0911 221.954L85.9309 325.287L98.0997 320.713ZM59.2599 217.38L20.4201 114.046L8.25132 118.62L47.0911 221.954L59.2599 217.38ZM20.4201 114.046L6.0844 75.906L-6.0844 80.4799L8.25132 118.62L20.4201 114.046ZM3018.08 255.52L3003.75 217.38L2991.58 221.954L3005.92 260.094L3018.08 255.52ZM3003.75 217.38L2964.91 114.046L2952.74 118.62L2991.58 221.954L3003.75 217.38ZM2964.91 114.046L2926.07 10.7131L2913.9 15.2869L2952.74 118.62L2964.91 114.046ZM3012 323V336H3025V323H3012ZM0 323H-13V336H0V323ZM0 13V0H-13V13H0ZM3012 13H3025V0H3012V13ZM3012 310H2944.49V336H3012V310ZM2944.49 310H2852.47V336H2944.49V310ZM2852.47 310H2760.46V336H2852.47V310ZM2760.46 310H2668.44V336H2760.46V310ZM2668.44 310H2576.43V336H2668.44V310ZM2576.43 310H2484.41V336H2576.43V310ZM2484.41 310H2392.4V336H2484.41V310ZM2392.4 310H2300.38V336H2392.4V310ZM2300.38 310H2208.37V336H2300.38V310ZM2208.37 310H2116.35V336H2208.37V310ZM2116.35 310H2024.34V336H2116.35V310ZM2024.34 310H1932.32V336H2024.34V310ZM1932.32 310H1840.31V336H1932.32V310ZM1840.31 310H1748.29V336H1840.31V310ZM1748.29 310H1656.28V336H1748.29V310ZM1656.28 310H1564.26V336H1656.28V310ZM1564.26 310H1472.24V336H1564.26V310ZM1472.24 310H1380.23V336H1472.24V310ZM1380.23 310H1288.21V336H1380.23V310ZM1288.21 310H1196.2V336H1288.21V310ZM1196.2 310H1104.18V336H1196.2V310ZM1104.18 310H1012.17V336H1104.18V310ZM1012.17 310H920.153V336H1012.17V310ZM920.153 310H828.138V336H920.153V310ZM828.138 310H736.122V336H828.138V310ZM736.122 310H644.107V336H736.122V310ZM644.107 310H552.092V336H644.107V310ZM552.092 310H460.076V336H552.092V310ZM460.076 310H368.061V336H460.076V310ZM368.061 310H276.046V336H368.061V310ZM276.046 310H184.031V336H276.046V310ZM184.031 310H92.0153V336H184.031V310ZM92.0153 310H0V336H92.0153V310ZM0 26H67.5111V0H0V26ZM67.5111 26H159.526V0H67.5111V26ZM159.526 26H251.542V0H159.526V26ZM251.542 26H343.557V0H251.542V26ZM343.557 26H435.572V0H343.557V26ZM435.572 26H527.588V0H435.572V26ZM527.588 26H619.603V0H527.588V26ZM619.603 26H711.618V0H619.603V26ZM711.618 26H803.633V0H711.618V26ZM803.633 26H895.649V0H803.633V26ZM895.649 26H987.664V0H895.649V26ZM987.664 26H1079.68V0H987.664V26ZM1079.68 26H1171.69V0H1079.68V26ZM1171.69 26H1263.71V0H1171.69V26ZM1263.71 26H1355.73V0H1263.71V26ZM1355.73 26H1447.74V0H1355.73V26ZM1447.74 26H1539.76V0H1447.74V26ZM1539.76 26H1631.77V0H1539.76V26ZM1631.77 26H1723.79V0H1631.77V26ZM1723.79 26H1815.8V0H1723.79V26ZM1815.8 26H1907.82V0H1815.8V26ZM1907.82 26H1999.83V0H1907.82V26ZM1999.83 26H2091.85V0H1999.83V26ZM2091.85 26H2183.86V0H2091.85V26ZM2183.86 26H2275.88V0H2183.86V26ZM2275.88 26H2367.89V0H2275.88V26ZM2367.89 26H2459.91V0H2367.89V26ZM2459.91 26H2551.92V0H2459.91V26ZM2551.92 26H2643.94V0H2551.92V26ZM2643.94 26H2735.95V0H2643.94V26ZM2735.95 26H2827.97V0H2735.95V26ZM2827.97 26H2919.98V0H2827.97V26ZM2919.98 26H3012V0H2919.98V26ZM2999 13V191.809H3025V13H2999ZM13 323V144.191H-13V323H13ZM13 144.191V78.1929H-13V144.191H13ZM13 78.1929V13H-13V78.1929H13ZM2999 191.809V257.807H3025V191.809H2999ZM2999 257.807V323H3025V257.807H2999Z" fill="#1A1A1A" mask="url(#path-2-inside-1_7_29)"/>
</svg>
