<svg width="3238" height="151" viewBox="0 0 3238 151" fill="none" xmlns="http://www.w3.org/2000/svg">
<g filter="url(#filter0_f_24_2)">
<path d="M3153.49 134H3221L3153.49 96.109M3153.49 134H3061.48M3153.49 134L3124.7 85.5909M3153.49 134L3050.64 95.0001M3061.48 134H2969.46M3061.48 134L3050.64 95.0001M3061.48 134L2958.63 95M2969.46 134H2877.45M2969.46 134L2958.63 95M2969.46 134L2866.61 95M2877.45 134H2785.43M2877.45 134L2866.61 95M2877.45 134L2774.6 95M2785.43 134H2693.42M2785.43 134L2774.6 95M2785.43 134L2682.58 95M2693.42 134H2601.4M2693.42 134L2682.58 95M2693.42 134L2590.57 95.0001M2601.4 134H2509.39M2601.4 134L2590.57 95.0001M2601.4 134L2498.55 95M2509.39 134H2417.37M2509.39 134L2498.55 95M2509.39 134L2406.54 95M2417.37 134H2325.36M2417.37 134L2406.54 95M2417.37 134L2314.53 95M2325.36 134H2233.35M2325.36 134L2314.53 95M2325.36 134L2222.51 95M2233.35 134H2141.33M2233.35 134L2222.51 95M2233.35 134L2130.5 95.0001M2141.33 134H2049.32M2141.33 134L2130.5 95.0001M2141.33 134L2038.48 95M2049.32 134H1957.3M2049.32 134L2038.48 95M2049.32 134L1946.47 95M1957.3 134H1865.29M1957.3 134L1946.47 95M1957.3 134L1854.45 95M1865.29 134H1773.27M1865.29 134L1854.45 95M1865.29 134L1762.44 95M1773.27 134H1681.26M1773.27 134L1762.44 95M1773.27 134L1670.42 95M1681.26 134H1589.25M1681.26 134L1670.42 95M1681.26 134L1578.41 95M1589.25 134H1497.23M1589.25 134L1578.41 95M1589.25 134L1486.4 95M1497.23 134H1405.22M1497.23 134L1486.4 95M1497.23 134L1394.38 95M1405.22 134H1313.2M1405.22 134L1394.38 95M1405.22 134L1302.37 95M1313.2 134H1221.19M1313.2 134L1302.37 95M1313.2 134L1210.35 95M1221.19 134H1129.17M1221.19 134L1210.35 95M1221.19 134L1118.34 95M1129.17 134H1037.16M1129.17 134L1118.34 95M1129.17 134L1026.32 95M1037.16 134H945.145M1037.16 134L1026.32 95M1037.16 134L934.31 95M945.145 134H853.13M945.145 134L934.31 95M945.145 134L842.295 95M853.13 134H761.116M853.13 134L842.295 95M853.13 134L750.281 95M761.116 134H669.102M761.116 134L750.281 95M761.116 134L658.267 95M669.102 134H577.087M669.102 134L658.267 95M669.102 134L566.252 95M577.087 134H485.073M577.087 134L566.252 95M577.087 134L474.238 95M485.073 134H393.059M485.073 134L474.238 95M485.073 134L382.224 95M393.059 134H301.044M393.059 134L382.224 95M393.059 134L290.209 95M301.044 134H209.03M301.044 134L290.209 95M301.044 134L199.529 99.8011M209.03 134L199.529 99.8011M209.03 134L91.4568 63.3934M84.5105 17H17L53.9072 40.8436L91.4568 63.3934M84.5105 17H176.525M84.5105 17L187.36 56M84.5105 17L91.4568 63.3934M176.525 17H268.539M176.525 17L187.36 56M176.525 17L279.374 56M268.539 17H360.554M268.539 17L279.374 56M268.539 17L371.389 56M360.554 17H452.568M360.554 17L371.389 56M360.554 17L463.403 56M452.568 17H544.582M452.568 17L463.403 56M452.568 17L555.417 56M544.582 17H636.597M544.582 17L555.417 56M544.582 17L647.432 56M636.597 17H728.611M636.597 17L647.432 56M636.597 17L739.446 56M728.611 17H820.625M728.611 17L739.446 56M728.611 17L831.46 56M820.625 17H912.64M820.625 17L831.46 56M820.625 17L923.475 56M912.64 17H1004.65M912.64 17L923.475 56M912.64 17L1015.49 56M1004.65 17H1096.67M1004.65 17L1015.49 56M1004.65 17L1107.5 56M1096.67 17H1188.68M1096.67 17L1107.5 56M1096.67 17L1199.52 56M1188.68 17H1280.7M1188.68 17L1199.52 56M1188.68 17L1291.53 56M1280.7 17H1372.71M1280.7 17L1291.53 56M1280.7 17L1383.55 56M1372.71 17H1464.73M1372.71 17L1383.55 56M1372.71 17L1475.56 56M1464.73 17H1556.74M1464.73 17L1475.56 56M1464.73 17L1567.58 56M1556.74 17H1648.75M1556.74 17L1567.58 56M1556.74 17L1659.59 56M1648.75 17H1740.77M1648.75 17L1659.59 56M1648.75 17L1751.6 56M1740.77 17H1832.78M1740.77 17L1751.6 56M1740.77 17L1843.62 56M1832.78 17H1924.8M1832.78 17L1843.62 56M1832.78 17L1935.63 56M1924.8 17H2016.81M1924.8 17L1935.63 56M1924.8 17L2027.65 56M2016.81 17H2108.83M2016.81 17L2027.65 56M2016.81 17L2119.66 56.0001M2108.83 17H2200.84M2108.83 17L2119.66 56.0001M2108.83 17L2211.68 56M2200.84 17H2292.85M2200.84 17L2211.68 56M2200.84 17L2303.69 55.9999M2292.85 17H2384.87M2292.85 17L2303.69 55.9999M2292.85 17L2395.7 56M2384.87 17H2476.88M2384.87 17L2395.7 56M2384.87 17L2487.72 56M2476.88 17H2568.9M2476.88 17L2487.72 56M2476.88 17L2579.73 56M2568.9 17H2660.91M2568.9 17L2579.73 56M2568.9 17L2671.75 56M2660.91 17H2752.93M2660.91 17L2671.75 56M2660.91 17L2763.76 55.9999M2752.93 17H2844.94M2752.93 17L2763.76 55.9999M2752.93 17L2855.78 56M2844.94 17H2936.96M2844.94 17L2855.78 56M2844.94 17L2947.79 56M2936.96 17H3028.97M2936.96 17L2947.79 56M2936.96 17L3039.36 54.4144M3028.97 17L3039.36 54.4144M3028.97 17L3117.98 74.2986M199.529 99.8011L187.36 56M199.529 99.8011L91.4568 63.3934M187.36 56L290.209 95M290.209 95L279.374 56M279.374 56L382.224 95M382.224 95L371.389 56M371.389 56L474.238 95M474.238 95L463.403 56M463.403 56L566.252 95M566.252 95L555.417 56M555.417 56L658.267 95M658.267 95L647.432 56M647.432 56L750.281 95M750.281 95L739.446 56M739.446 56L842.295 95M842.295 95L831.46 56M831.46 56L934.31 95M934.31 95L923.475 56M923.475 56L1026.32 95M1026.32 95L1015.49 56M1015.49 56L1118.34 95M1118.34 95L1107.5 56M1107.5 56L1210.35 95M1210.35 95L1199.52 56M1199.52 56L1302.37 95M1302.37 95L1291.53 56M1291.53 56L1394.38 95M1394.38 95L1383.55 56M1383.55 56L1486.4 95M1486.4 95L1475.56 56M1475.56 56L1578.41 95M1578.41 95L1567.58 56M1567.58 56L1670.42 95M1670.42 95L1659.59 56M1659.59 56L1762.44 95M1762.44 95L1751.6 56M1751.6 56L1854.45 95M1854.45 95L1843.62 56M1843.62 56L1946.47 95M1946.47 95L1935.63 56M1935.63 56L2038.48 95M2038.48 95L2027.65 56M2027.65 56L2130.5 95.0001M2130.5 95.0001L2119.66 56.0001M2119.66 56.0001L2222.51 95M2222.51 95L2211.68 56M2211.68 56L2314.53 95M2314.53 95L2303.69 55.9999M2303.69 55.9999L2406.54 95M2406.54 95L2395.7 56M2395.7 56L2498.55 95M2498.55 95L2487.72 56M2487.72 56L2590.57 95.0001M2590.57 95.0001L2579.73 56M2579.73 56L2682.58 95M2682.58 95L2671.75 56M2671.75 56L2774.6 95M2774.6 95L2763.76 55.9999M2763.76 55.9999L2866.61 95M2866.61 95L2855.78 56M2855.78 56L2958.63 95M2958.63 95L2947.79 56M2947.79 56L3050.64 95.0001M3050.64 95.0001L3039.36 54.4144M3039.36 54.4144L3124.7 85.5909M3124.7 85.5909L3117.98 74.2986M3124.7 85.5909L3153.49 96.109M3117.98 74.2986L3153.49 96.109" stroke="black" stroke-opacity="0.66" stroke-width="13" stroke-linejoin="round"/>
</g>
<defs>
<filter id="filter0_f_24_2" x="0.499512" y="0.5" width="3237" height="150" filterUnits="userSpaceOnUse" color-interpolation-filters="sRGB">
<feFlood flood-opacity="0" result="BackgroundImageFix"/>
<feBlend mode="normal" in="SourceGraphic" in2="BackgroundImageFix" result="shape"/>
<feGaussianBlur stdDeviation="5" result="effect1_foregroundBlur_24_2"/>
</filter>
</defs>
</svg>
