<svg width="786" height="786" viewBox="0 0 786 786" fill="none" xmlns="http://www.w3.org/2000/svg">
<circle cx="393" cy="393" r="393" fill="white"/>
<path d="M710 392.5C710 505.179 651.302 604.149 562.816 660.5C513.601 691.842 455.171 710 392.5 710C217.15 710 75 567.85 75 392.5C75 217.15 217.15 75 392.5 75C543.443 75 669.784 180.331 702.031 321.5C707.246 344.328 710 368.092 710 392.5Z" fill="url(#paint0_radial_2_9)"/>
<path d="M75 392.5C75 567.85 217.15 710 392.5 710C455.171 710 513.601 691.842 562.816 660.5M75 392.5C75 217.15 217.15 75 392.5 75M75 392.5C75 282 198.5 279.5 266 359.5C336.123 442.608 314 554.5 392.5 641C426.541 678.51 499.47 682.1 562.816 660.5M392.5 75C543.443 75 669.784 180.331 702.031 321.5M392.5 75C419.3 205 683.071 238.5 702.031 321.5M562.816 660.5C651.302 604.149 710 505.179 710 392.5C710 368.092 707.246 344.328 702.031 321.5" stroke="#246B30" stroke-width="51"/>
<defs>
<radialGradient id="paint0_radial_2_9" cx="0" cy="0" r="1" gradientUnits="userSpaceOnUse" gradientTransform="translate(563.5 685.5) rotate(-120.663) scale(669.625)">
<stop stop-color="#5FB840"/>
<stop offset="0.695075" stop-color="#E5F920"/>
</radialGradient>
</defs>
</svg>
